<mxfile host="app.diagrams.net" agent="Mozilla/5.0 (Windows NT 10.0; Win64; x64) AppleWebKit/537.36 (KHTML, like Gecko) Chrome/138.0.0.0 YaBrowser/25.8.0.0 Safari/537.36" version="27.1.1">
  <diagram name="Страница — 1" id="vYifYDOqZS8oL4Sab2rS">
    <mxGraphModel dx="1421" dy="833" grid="1" gridSize="10" guides="1" tooltips="1" connect="1" arrows="1" fold="1" page="1" pageScale="1" pageWidth="827" pageHeight="1169" math="0" shadow="0">
      <root>
        <mxCell id="0" />
        <mxCell id="1" parent="0" />
        <mxCell id="Hb3OrOdJR_60eM7PJCKx-1" value="" style="ellipse;whiteSpace=wrap;html=1;" vertex="1" parent="1">
          <mxGeometry x="300" y="30" width="140" height="50" as="geometry" />
        </mxCell>
        <mxCell id="Hb3OrOdJR_60eM7PJCKx-2" value="" style="endArrow=classic;html=1;rounded=0;exitX=0.5;exitY=1;exitDx=0;exitDy=0;" edge="1" parent="1" source="Hb3OrOdJR_60eM7PJCKx-1">
          <mxGeometry width="50" height="50" relative="1" as="geometry">
            <mxPoint x="390" y="190" as="sourcePoint" />
            <mxPoint x="370" y="120" as="targetPoint" />
          </mxGeometry>
        </mxCell>
        <mxCell id="Hb3OrOdJR_60eM7PJCKx-3" value="" style="rounded=0;whiteSpace=wrap;html=1;" vertex="1" parent="1">
          <mxGeometry x="245" y="120" width="250" height="60" as="geometry" />
        </mxCell>
        <mxCell id="Hb3OrOdJR_60eM7PJCKx-4" value="" style="endArrow=classic;html=1;rounded=0;exitX=0.5;exitY=1;exitDx=0;exitDy=0;" edge="1" parent="1">
          <mxGeometry width="50" height="50" relative="1" as="geometry">
            <mxPoint x="369.66" y="180" as="sourcePoint" />
            <mxPoint x="369.66" y="220" as="targetPoint" />
          </mxGeometry>
        </mxCell>
        <mxCell id="Hb3OrOdJR_60eM7PJCKx-6" value="Начало" style="text;html=1;align=center;verticalAlign=middle;whiteSpace=wrap;rounded=0;" vertex="1" parent="1">
          <mxGeometry x="340" y="40" width="60" height="30" as="geometry" />
        </mxCell>
        <mxCell id="Hb3OrOdJR_60eM7PJCKx-7" value="Ввод&amp;nbsp;&lt;span style=&quot;color: rgb(32, 33, 34); font-family: sans-serif; font-size: 14px; text-align: start; background-color: rgb(255, 255, 255);&quot;&gt;графа&amp;nbsp;&lt;/span&gt;&lt;span style=&quot;text-wrap-mode: nowrap; color: rgb(32, 33, 34); font-family: sans-serif; font-size: 14px; text-align: start; background-color: rgb(255, 255, 255);&quot; class=&quot;mwe-math-element mwe-math-element-inline&quot;&gt;&lt;span style=&quot;display: none; clip: rect(1px, 1px, 1px, 1px); overflow: hidden; position: absolute; width: 1px; height: 1px; opacity: 0;&quot; class=&quot;mwe-math-mathml-inline mwe-math-mathml-a11y&quot;&gt;&lt;math xmlns=&quot;http://www.w3.org/1998/Math/MathML&quot;&gt;&lt;mrow class=&quot;MJX-TeXAtom-ORD&quot;&gt;&lt;mstyle scriptlevel=&quot;0&quot; displaystyle=&quot;true&quot;&gt;&lt;mi&gt;G&lt;/mi&gt;&lt;mo&gt;=&lt;/mo&gt;&lt;mo stretchy=&quot;false&quot;&gt;(&lt;/mo&gt;&lt;mi&gt;V&lt;/mi&gt;&lt;mo&gt;,&lt;/mo&gt;&lt;mi&gt;E&lt;/mi&gt;&lt;mo stretchy=&quot;false&quot;&gt;)&lt;/mo&gt;&lt;/mstyle&gt;&lt;/mrow&gt;&lt;/math&gt;&lt;/span&gt;&lt;img style=&quot;border: 0px; vertical-align: -0.838ex; margin: 0px; display: inline-block; --ruwiki-background-color-blue150: #dcebff; --ruwiki-background-color-blue200: #cfe3ff; width: 11.331ex; height: 2.843ex;&quot; alt=&quot;{\displaystyle G=(V,E)}&quot; aria-hidden=&quot;true&quot; class=&quot;mwe-math-fallback-image-inline mw-invert skin-invert&quot; src=&quot;https://wikimedia.org/api/rest_v1/media/math/render/svg/644a8d85ee410b6159ca2bdb5dcb9097e2c8f182&quot;&gt;&lt;/span&gt;" style="text;html=1;align=center;verticalAlign=middle;whiteSpace=wrap;rounded=0;" vertex="1" parent="1">
          <mxGeometry x="245" y="120" width="255" height="60" as="geometry" />
        </mxCell>
        <mxCell id="Hb3OrOdJR_60eM7PJCKx-9" value="" style="rhombus;whiteSpace=wrap;html=1;" vertex="1" parent="1">
          <mxGeometry x="285" y="220" width="170" height="110" as="geometry" />
        </mxCell>
        <mxCell id="Hb3OrOdJR_60eM7PJCKx-10" value="|P|&amp;lt;|V|" style="text;html=1;align=center;verticalAlign=middle;whiteSpace=wrap;rounded=0;" vertex="1" parent="1">
          <mxGeometry x="310" y="250" width="120" height="50" as="geometry" />
        </mxCell>
        <mxCell id="Hb3OrOdJR_60eM7PJCKx-12" value="" style="endArrow=classic;html=1;rounded=0;exitX=0.5;exitY=1;exitDx=0;exitDy=0;" edge="1" parent="1">
          <mxGeometry width="50" height="50" relative="1" as="geometry">
            <mxPoint x="370" y="330" as="sourcePoint" />
            <mxPoint x="370" y="370" as="targetPoint" />
          </mxGeometry>
        </mxCell>
        <mxCell id="Hb3OrOdJR_60eM7PJCKx-13" value="Выбрать любую вершину V такую, что A(V) - пустое множество и V не принадлежит P" style="rounded=0;whiteSpace=wrap;html=1;" vertex="1" parent="1">
          <mxGeometry x="245" y="370" width="255" height="60" as="geometry" />
        </mxCell>
        <mxCell id="Hb3OrOdJR_60eM7PJCKx-14" value="" style="endArrow=classic;html=1;rounded=0;exitX=0.5;exitY=1;exitDx=0;exitDy=0;" edge="1" parent="1">
          <mxGeometry width="50" height="50" relative="1" as="geometry">
            <mxPoint x="369.6600000000001" y="430" as="sourcePoint" />
            <mxPoint x="369.6600000000001" y="470" as="targetPoint" />
          </mxGeometry>
        </mxCell>
        <mxCell id="Hb3OrOdJR_60eM7PJCKx-16" value="" style="rounded=0;whiteSpace=wrap;html=1;" vertex="1" parent="1">
          <mxGeometry x="245" y="470" width="250" height="60" as="geometry" />
        </mxCell>
        <mxCell id="Hb3OrOdJR_60eM7PJCKx-17" value="&lt;img alt=&quot;{\displaystyle P\gets P,v}&quot; src=&quot;https://wikimedia.org/api/rest_v1/media/math/render/svg/1ca75fa5b77e846e7298ed8866cb73112a910b86&quot;&gt;" style="text;html=1;align=center;verticalAlign=middle;whiteSpace=wrap;rounded=0;" vertex="1" parent="1">
          <mxGeometry x="245" y="470" width="255" height="60" as="geometry" />
        </mxCell>
        <mxCell id="Hb3OrOdJR_60eM7PJCKx-18" value="" style="endArrow=classic;html=1;rounded=0;exitX=0.5;exitY=1;exitDx=0;exitDy=0;" edge="1" parent="1">
          <mxGeometry width="50" height="50" relative="1" as="geometry">
            <mxPoint x="370" y="530" as="sourcePoint" />
            <mxPoint x="370" y="570" as="targetPoint" />
          </mxGeometry>
        </mxCell>
        <mxCell id="Hb3OrOdJR_60eM7PJCKx-19" value="" style="rounded=0;whiteSpace=wrap;html=1;" vertex="1" parent="1">
          <mxGeometry x="245" y="570" width="250" height="60" as="geometry" />
        </mxCell>
        <mxCell id="Hb3OrOdJR_60eM7PJCKx-20" value="Удалить V из всех A(u), u&amp;nbsp;&lt;span style=&quot;color: rgb(51, 51, 51); font-family: &amp;quot;YS Text&amp;quot;, -apple-system, BlinkMacSystemFont, Arial, Helvetica, &amp;quot;Arial Unicode MS&amp;quot;, sans-serif; font-size: 16px; text-align: left; background-color: rgb(255, 255, 255);&quot;&gt;≠ V&lt;/span&gt;" style="text;html=1;align=center;verticalAlign=middle;whiteSpace=wrap;rounded=0;" vertex="1" parent="1">
          <mxGeometry x="245" y="570" width="255" height="60" as="geometry" />
        </mxCell>
        <mxCell id="Hb3OrOdJR_60eM7PJCKx-22" value="" style="endArrow=none;html=1;rounded=0;entryX=0.49;entryY=0.998;entryDx=0;entryDy=0;entryPerimeter=0;" edge="1" parent="1" target="Hb3OrOdJR_60eM7PJCKx-20">
          <mxGeometry width="50" height="50" relative="1" as="geometry">
            <mxPoint x="370" y="670" as="sourcePoint" />
            <mxPoint x="400" y="720" as="targetPoint" />
          </mxGeometry>
        </mxCell>
        <mxCell id="Hb3OrOdJR_60eM7PJCKx-23" value="" style="endArrow=none;html=1;rounded=0;" edge="1" parent="1">
          <mxGeometry width="50" height="50" relative="1" as="geometry">
            <mxPoint x="200" y="670" as="sourcePoint" />
            <mxPoint x="370" y="670" as="targetPoint" />
          </mxGeometry>
        </mxCell>
        <mxCell id="Hb3OrOdJR_60eM7PJCKx-24" value="" style="endArrow=none;html=1;rounded=0;" edge="1" parent="1">
          <mxGeometry width="50" height="50" relative="1" as="geometry">
            <mxPoint x="200" y="670" as="sourcePoint" />
            <mxPoint x="200" y="270" as="targetPoint" />
          </mxGeometry>
        </mxCell>
        <mxCell id="Hb3OrOdJR_60eM7PJCKx-25" value="" style="endArrow=classic;html=1;rounded=0;entryX=0;entryY=0.5;entryDx=0;entryDy=0;" edge="1" parent="1" target="Hb3OrOdJR_60eM7PJCKx-9">
          <mxGeometry width="50" height="50" relative="1" as="geometry">
            <mxPoint x="200" y="275" as="sourcePoint" />
            <mxPoint x="270" y="280" as="targetPoint" />
          </mxGeometry>
        </mxCell>
        <mxCell id="Hb3OrOdJR_60eM7PJCKx-26" value="" style="endArrow=none;html=1;rounded=0;exitX=1;exitY=0.5;exitDx=0;exitDy=0;" edge="1" parent="1" source="Hb3OrOdJR_60eM7PJCKx-9">
          <mxGeometry width="50" height="50" relative="1" as="geometry">
            <mxPoint x="530" y="300" as="sourcePoint" />
            <mxPoint x="560" y="275" as="targetPoint" />
          </mxGeometry>
        </mxCell>
        <mxCell id="Hb3OrOdJR_60eM7PJCKx-27" value="" style="endArrow=none;html=1;rounded=0;" edge="1" parent="1">
          <mxGeometry width="50" height="50" relative="1" as="geometry">
            <mxPoint x="560" y="690" as="sourcePoint" />
            <mxPoint x="560" y="270" as="targetPoint" />
          </mxGeometry>
        </mxCell>
        <mxCell id="Hb3OrOdJR_60eM7PJCKx-28" value="" style="endArrow=none;html=1;rounded=0;" edge="1" parent="1">
          <mxGeometry width="50" height="50" relative="1" as="geometry">
            <mxPoint x="370" y="690" as="sourcePoint" />
            <mxPoint x="560" y="690" as="targetPoint" />
          </mxGeometry>
        </mxCell>
        <mxCell id="Hb3OrOdJR_60eM7PJCKx-30" value="" style="ellipse;whiteSpace=wrap;html=1;" vertex="1" parent="1">
          <mxGeometry x="300" y="730" width="140" height="50" as="geometry" />
        </mxCell>
        <mxCell id="Hb3OrOdJR_60eM7PJCKx-31" value="" style="endArrow=classic;html=1;rounded=0;" edge="1" parent="1">
          <mxGeometry width="50" height="50" relative="1" as="geometry">
            <mxPoint x="369.8" y="700" as="sourcePoint" />
            <mxPoint x="369.8" y="730" as="targetPoint" />
            <Array as="points">
              <mxPoint x="370" y="690" />
              <mxPoint x="369.8" y="700" />
            </Array>
          </mxGeometry>
        </mxCell>
        <mxCell id="Hb3OrOdJR_60eM7PJCKx-32" value="Начало" style="text;html=1;align=center;verticalAlign=middle;whiteSpace=wrap;rounded=0;" vertex="1" parent="1">
          <mxGeometry x="340" y="740" width="60" height="30" as="geometry" />
        </mxCell>
      </root>
    </mxGraphModel>
  </diagram>
</mxfile>
